<svg width="16" height="21" viewBox="0 0 16 21" fill="none" xmlns="http://www.w3.org/2000/svg">
<path d="M8.65 1.24005L8 0.680054L7.35 1.24005C7 1.50005 0 7.60005 0 13.0001C0 15.1218 0.842855 17.1566 2.34315 18.6569C3.84344 20.1572 5.87827 21.0001 8 21.0001C10.1217 21.0001 12.1566 20.1572 13.6569 18.6569C15.1571 17.1566 16 15.1218 16 13.0001C16 7.60005 9 1.50005 8.65 1.24005ZM10.23 17.4701L9.34 15.6801C9.83813 15.4314 10.2572 15.049 10.5504 14.5757C10.8436 14.1024 10.9992 13.5568 11 13.0001H13C12.999 13.9289 12.7394 14.8391 12.2501 15.6286C11.7609 16.4182 11.0613 17.0558 10.23 17.4701Z" fill="#9C4A6B"/>
</svg>
