<svg width="24" height="24" viewBox="0 0 24 24" fill="none" xmlns="http://www.w3.org/2000/svg">
<g clip-path="url(#clip0_1_1931)">
<path d="M3.63246 0.865131L2.80155 1.01171L3.23862 3.49074C2.99155 3.52922 2.74467 3.5689 2.49799 3.6098L2.19316 1.88058L1.36226 2.02702L1.66648 3.75179C1.39756 3.79916 1.12887 3.84779 0.860413 3.89766L1.01473 4.72716C1.28323 4.67719 1.54896 4.62919 1.81291 4.5826L2.14366 6.45854L2.97462 6.3121L2.64462 4.44038C2.89324 4.39913 3.14008 4.35952 3.38515 4.32132L3.84344 6.92054L4.6744 6.77401L4.21985 4.19635C4.61749 4.13926 5.01044 4.08676 5.40016 4.03791C6.1286 6.21244 7.02659 8.72518 8.53779 10.3402C8.94658 11.7652 9.00002 12.5625 10.0575 14.5312C9.00002 16.3125 8.25002 19.3125 7.83799 22.0781L5.58799 22.3593V23.0625H9.00002C9.75002 20.8125 12 16.3125 12 16.3125C12 16.3125 14.25 20.8125 15 23.0625H18.4121V22.3593L16.1621 22.0781C15.75 19.3125 15 16.3125 13.7813 14.5312C15 12.5625 14.9145 11.7382 15.4608 10.3417C16.9725 8.72673 17.8711 6.21315 18.5999 4.03801C18.9896 4.08676 19.3826 4.13926 19.7802 4.19644L19.3257 6.7741L20.1567 6.92054L20.615 4.32132C20.8601 4.35952 21.1069 4.39913 21.3556 4.44038L21.0255 6.3121L21.8565 6.45858L22.1872 4.58265C22.4511 4.62919 22.7169 4.67719 22.9854 4.72716L23.1397 3.89766C22.8688 3.84727 22.6003 3.79876 22.3337 3.75174L22.6379 2.02693L21.807 1.88044L21.5021 3.60966C21.2535 3.56841 21.0066 3.52871 20.7615 3.4906L21.1985 1.01157L20.3676 0.86499L19.9267 3.36577C17.1554 2.96762 14.5773 2.76746 12 2.76746C9.42283 2.76746 6.84457 2.96762 4.07337 3.36591L3.63246 0.865131ZM12 3.6084C13.6655 3.6084 15.3314 3.69418 17.0542 3.86447C16.3941 5.49844 15.2516 7.30998 14.0915 8.64418C13.6075 9.34074 12.8602 9.79683 12 9.79683C11.1399 9.79683 10.3925 9.34074 9.90846 8.64418C8.7484 7.30998 7.60596 5.4984 6.94587 3.86447C8.66852 3.69418 10.3345 3.6084 12 3.6084ZM12 4.54683C11.0234 4.54683 10.1719 5.49558 10.1719 6.74996C10.1719 8.00433 11.0234 8.95308 12 8.95308C12.9767 8.95308 13.8281 8.00433 13.8281 6.74996C13.8281 5.49558 12.9767 4.54683 12 4.54683Z" fill="#D2B47D"/>
</g>
<defs>
<clipPath id="clip0_1_1931">
<rect width="24" height="24" fill="white"/>
</clipPath>
</defs>
</svg>
